<?xml version="1.0" standalone="no"?>
<!DOCTYPE svg PUBLIC "-//W3C//DTD SVG 20010904//EN"
 "http://www.w3.org/TR/2001/REC-SVG-20010904/DTD/svg10.dtd">
<svg version="1.0" xmlns="http://www.w3.org/2000/svg"
 width="337.000000pt" height="320.000000pt" viewBox="0 0 337.000000 320.000000"
 preserveAspectRatio="xMidYMid meet">

<g transform="translate(0.000000,320.000000) scale(0.100000,-0.100000)"
fill="#3976f6" stroke="none">
<path d="M1602 3116 c-51 -17 -89 -45 -202 -151 -47 -44 -108 -100 -136 -125
-27 -25 -170 -158 -319 -295 -148 -137 -295 -272 -325 -299 -30 -28 -93 -87
-140 -131 -47 -44 -141 -132 -210 -195 -68 -63 -139 -131 -158 -150 -55 -59
-89 -158 -63 -185 5 -6 14 -27 20 -47 14 -42 64 -91 119 -114 24 -10 83 -18
164 -21 l127 -6 3 -521 3 -521 28 -47 c34 -59 96 -110 165 -137 54 -21 58 -21
1010 -19 l957 3 45 23 c71 35 113 75 145 138 l30 59 3 511 3 511 129 6 c147 7
183 20 241 84 48 53 66 121 50 181 -15 57 -48 98 -157 198 -48 43 -126 115
-173 160 -47 44 -115 107 -151 140 -36 33 -159 147 -275 254 -115 107 -230
213 -254 235 -24 22 -63 58 -86 80 -23 22 -96 90 -161 150 -65 61 -139 129
-164 153 -83 78 -180 106 -268 78z m290 -561 c40 -8 82 -19 93 -24 11 -5 36
-15 55 -22 162 -59 316 -234 381 -432 65 -201 8 -470 -134 -629 -30 -34 -38
-38 -82 -38 -56 1 -85 17 -85 48 0 11 31 67 69 124 40 59 73 119 76 141 4 20
11 40 16 43 12 7 12 231 0 238 -5 4 -12 23 -16 44 -15 91 -134 238 -238 294
-97 53 -139 63 -267 63 -127 0 -183 -16 -286 -81 -140 -89 -234 -268 -234
-445 0 -68 26 -186 46 -210 8 -8 14 -19 14 -23 0 -5 13 -27 28 -50 16 -23 27
-47 24 -54 -2 -8 -31 -12 -87 -12 l-83 0 -31 63 c-51 105 -64 174 -59 317 4
105 9 137 33 200 60 162 141 265 270 345 162 101 329 134 497 100z m44 -313
c135 -67 224 -210 224 -357 0 -144 -105 -318 -175 -291 -20 7 -20 135 0 202
41 135 -7 252 -125 306 -66 30 -175 22 -227 -18 -46 -34 -57 -48 -83 -96 -23
-42 -25 -80 -15 -251 l8 -118 -39 3 c-34 3 -43 9 -71 51 -45 67 -58 117 -58
222 0 82 3 97 33 157 37 76 113 157 169 182 51 23 75 33 93 40 8 3 58 4 110 2
82 -3 103 -7 156 -34z m-111 -222 c72 -45 69 -26 75 -514 l5 -440 78 116 c65
98 86 120 122 138 68 33 134 9 171 -63 27 -50 13 -95 -62 -209 -38 -57 -73
-110 -79 -120 -5 -9 -59 -90 -120 -179 -60 -90 -114 -171 -120 -181 -5 -9 -34
-52 -62 -95 -29 -43 -58 -87 -65 -97 -7 -11 -25 -33 -40 -50 l-26 -31 -349 -3
c-292 -2 -351 0 -368 12 -19 14 -20 28 -23 433 -2 321 0 429 10 458 16 50 66
85 119 85 39 0 39 0 39 39 0 111 143 170 221 91 l27 -26 6 37 c13 79 100 136
168 109 18 -8 42 -23 53 -34 l20 -21 5 242 5 242 30 31 c51 54 105 64 160 30z"/>
</g>
</svg>
